<svg viewBox="0 0 60.0176 63" xmlns="http://www.w3.org/2000/svg" xmlns:xlink="http://www.w3.org/1999/xlink" width="60.017578" height="63.000000" fill="none" customFrame="#000000">
	<g id="лого">
		<path id="W" d="M11.4434 26.5205L16.0312 26.5205L18.9492 34.958L21.8936 26.5205L26.4814 26.5205L22.1045 38.1309L25.3389 46.2783L32.5723 26.4414L37.9512 26.4414L27.7295 52L23.4404 52L18.9668 41.251L14.4844 52L10.2041 52L0 26.4414L5.34375 26.4414L12.6035 46.2783L15.7939 38.1309L11.4434 26.5205Z" fill="rgb(255,255,255)" fill-rule="nonzero" />
		<path id="W" d="M33.4296 8.22L38.0376 8.22L40.9536 16.68L43.9056 8.22L48.4776 8.22L44.0856 19.848L47.3256 27.984L54.5616 8.148L59.9616 8.148L49.7376 33.708L45.4536 33.708L40.9536 22.98L36.4896 33.708L32.2056 33.708L22.0176 8.148L27.3456 8.148L34.6176 27.984L37.7856 19.848L33.4296 8.22Z" fill="rgb(255,255,255)" fill-rule="nonzero" />
	</g>
</svg>
