<svg viewBox="0 0 60 63" xmlns="http://www.w3.org/2000/svg" xmlns:xlink="http://www.w3.org/1999/xlink" width="60.000000" height="63.000000" fill="none" customFrame="#000000">
	<g id="лого">
		<path id="W" d="M11.412 29.22L16.02 29.22L18.936 37.68L21.888 29.22L26.46 29.22L22.068 40.848L25.308 48.984L32.544 29.148L37.944 29.148L27.72 54.708L23.436 54.708L18.936 43.98L14.472 54.708L10.188 54.708L0 29.148L5.328 29.148L12.6 48.984L15.768 40.848L11.412 29.22Z" fill="rgb(255,255,255)" fill-rule="nonzero" />
		<path id="W" d="M33.412 8.22L38.02 8.22L40.936 16.68L43.888 8.22L48.46 8.22L44.068 19.848L47.308 27.984L54.544 8.148L59.944 8.148L49.72 33.708L45.436 33.708L40.936 22.98L36.472 33.708L32.188 33.708L22 8.148L27.328 8.148L34.6 27.984L37.768 19.848L33.412 8.22Z" fill="rgb(255,255,255)" fill-rule="nonzero" />
	</g>
</svg>
